<svg width="16" height="16" viewBox="0 0 16 16" fill="none" xmlns="http://www.w3.org/2000/svg">
<g id="finger ">
<g id="Group">
<g id="Group_2">
<path id="Vector" d="M13.333 6C13.0869 6 12.8561 6.06706 12.6579 6.18391C12.5833 5.51856 12.0176 5 11.333 5C11.0075 5 10.7083 5.11784 10.4759 5.31413C10.2425 4.92644 9.8177 4.66666 9.33301 4.66666C9.09051 4.66666 8.86263 4.73175 8.66635 4.84569V1.33334C8.66632 0.597969 8.06835 0 7.33301 0C6.59766 0 5.99966 0.597969 5.99966 1.33334V10.2546C5.99966 10.4225 5.88898 10.5088 5.84144 10.5381C5.79391 10.5674 5.66598 10.6276 5.51723 10.5527L3.3766 9.48244C3.1816 9.38478 2.9632 9.33334 2.7451 9.33334C1.96645 9.33334 1.33301 9.96681 1.33301 10.7455V11C1.33301 11.0924 1.37141 11.1807 1.43879 11.2438L5.28613 14.8346C6.09145 15.5859 7.1416 16 8.24282 16H10.333C12.7223 16 14.6663 14.056 14.6663 11.6667V7.33334C14.6663 6.59797 14.0684 6 13.333 6ZM13.9997 11.6667C13.9997 13.6885 12.3548 15.3333 10.333 15.3333H8.24285C7.3112 15.3333 6.42254 14.9831 5.74123 14.347L1.99966 10.8552V10.7455C1.99966 10.3343 2.33398 10 2.7451 10C2.86001 10 2.97557 10.0273 3.07845 10.0788L5.21907 11.1491C5.53126 11.3057 5.89516 11.2884 6.19204 11.1055C6.48891 10.9219 6.66632 10.6038 6.66632 10.2546V1.33334C6.66632 0.965844 6.96548 0.666687 7.33298 0.666687C7.70048 0.666687 7.99963 0.965844 7.99963 1.33334V6.33334C7.99963 6.51759 8.14873 6.66669 8.33298 6.66669C8.51723 6.66669 8.66632 6.51759 8.66632 6.33334V6C8.66632 5.6325 8.96548 5.33334 9.33298 5.33334C9.70048 5.33334 9.99963 5.6325 9.99963 6V6.33334C9.99963 6.334 9.99963 6.33466 9.99963 6.33531V6.33563C10.0009 6.51856 10.1497 6.66669 10.333 6.66669C10.5172 6.66669 10.6663 6.51759 10.6663 6.33334V6.32812C10.6689 5.96322 10.9678 5.66666 11.333 5.66666C11.7005 5.66666 11.9996 5.96581 11.9996 6.33331V7.33331C11.9996 7.51756 12.1487 7.66666 12.333 7.66666C12.5172 7.66666 12.6663 7.51756 12.6663 7.33331C12.6663 6.96581 12.9655 6.66666 13.333 6.66666C13.7005 6.66666 13.9997 6.96581 13.9997 7.33334V11.6667Z" fill="white"/>
</g>
</g>
</g>
</svg>
