<svg width="23" height="23" viewBox="0 0 23 23" fill="none" xmlns="http://www.w3.org/2000/svg">
<g id="finger " clip-path="url(#clip0_1374_63)">
<g id="Group">
<g id="Group_2">
<path id="Vector" d="M14.3797 6.45199C14.1772 6.59191 14.0255 6.7783 13.9289 6.98714C13.4892 6.4822 12.729 6.3773 12.1659 6.76653C11.8981 6.95162 11.719 7.21866 11.6394 7.51226C11.227 7.32605 10.7298 7.35389 10.3311 7.62948C10.1316 7.76736 9.98114 7.95047 9.88445 8.1558L7.88739 5.26646C7.46925 4.66154 6.63735 4.50963 6.03243 4.92773C5.42752 5.34584 5.27559 6.17775 5.69371 6.78269L10.7662 14.1215C10.8617 14.2597 10.8197 14.3936 10.7972 14.4447C10.7748 14.4959 10.7038 14.6181 10.5388 14.6411L8.16935 14.9778C7.95341 15.0083 7.7445 15.0902 7.56509 15.2142C6.92455 15.6569 6.76364 16.5382 7.20637 17.1787L7.3511 17.3881C7.40366 17.4642 7.48541 17.5149 7.57674 17.5285L12.7833 18.2949C13.873 18.4551 14.9723 18.1986 15.8782 17.5724L17.5976 16.384C19.5631 15.0255 20.057 12.321 18.6985 10.3554L16.2346 6.79073C15.8165 6.18579 14.9846 6.03388 14.3797 6.45199ZM18.1501 10.7345C19.2996 12.3977 18.8818 14.686 17.2186 15.8356L15.4992 17.024C14.7328 17.5537 13.8026 17.7709 12.8804 17.635L7.81715 16.8899L7.75478 16.7997C7.52101 16.4615 7.60594 15.9964 7.94414 15.7626C8.03866 15.6973 8.14927 15.654 8.26315 15.6379L10.6326 15.3012C10.9785 15.2525 11.268 15.0314 11.4082 14.7121C11.5481 14.3923 11.5132 14.0298 11.3146 13.7425L6.24212 6.40364C6.03316 6.10133 6.10916 5.68514 6.41148 5.47619C6.71379 5.26723 7.12998 5.34323 7.33893 5.64554L10.1819 9.75867C10.2866 9.91024 10.494 9.94812 10.6456 9.84336C10.7972 9.73859 10.835 9.53117 10.7303 9.3796L10.5408 9.10539C10.3318 8.80307 10.4078 8.38688 10.7101 8.17793C11.0124 7.96898 11.4286 8.04497 11.6376 8.34729L11.8271 8.62151C11.8275 8.62205 11.8278 8.62259 11.8282 8.62312L11.8284 8.62338C11.9335 8.77313 12.1401 8.8104 12.2909 8.70619C12.4424 8.60143 12.4803 8.39401 12.3755 8.24244L12.3726 8.23814C12.1672 7.93649 12.2444 7.52261 12.5449 7.31495C12.8472 7.106 13.2634 7.182 13.4723 7.48431L14.0409 8.30694C14.1457 8.45851 14.3531 8.49638 14.5047 8.39162C14.6562 8.28686 14.6941 8.07944 14.5894 7.92787C14.3804 7.62556 14.4564 7.20937 14.7587 7.00041C15.061 6.79146 15.4772 6.86744 15.6862 7.16978L18.1501 10.7345Z" fill="black"/>
</g>
</g>
</g>
<defs>
<clipPath id="clip0_1374_63">
<rect width="16" height="16" fill="white" transform="translate(0 9.09741) rotate(-34.6515)"/>
</clipPath>
</defs>
</svg>
